<mxfile host="app.diagrams.net" modified="2023-07-24T20:09:16.221Z" agent="Mozilla/5.0 (Windows NT 10.0; Win64; x64) AppleWebKit/537.36 (KHTML, like Gecko) Chrome/115.0.0.0 Safari/537.36" etag="yc0l10jN9u0smqzZGjB4" version="21.6.5" type="device">
  <diagram name="Página-1" id="NN_8PPng1AFwNW3Biz9l">
    <mxGraphModel dx="1313" dy="646" grid="1" gridSize="10" guides="1" tooltips="1" connect="1" arrows="1" fold="1" page="1" pageScale="1" pageWidth="1169" pageHeight="827" math="0" shadow="0">
      <root>
        <mxCell id="0" />
        <mxCell id="1" parent="0" />
        <mxCell id="2ybAQO_uClmqS2pj12lF-1" value="Uma clínica veterinária deseja cadastrar os pets que são atendidos em seu local.&#xa;&#xa;&#xa;- a clínica contém um endereço;&#xa;- os pets deverão ter nome, data de nascimento, tipo de pet;&#xa;- os pets deverão ter raça;&#xa;- os pets deverão ter donos;&#xa;- a clínica deseja cadastrar seus veterinários e todo atendimento de pet será feito por um veterinário;" style="text;whiteSpace=wrap;" vertex="1" parent="1">
          <mxGeometry x="85" y="30" width="560" height="150" as="geometry" />
        </mxCell>
        <mxCell id="2ybAQO_uClmqS2pj12lF-2" value="Clínica" style="rounded=0;whiteSpace=wrap;html=1;" vertex="1" parent="1">
          <mxGeometry x="215" y="290" width="120" height="60" as="geometry" />
        </mxCell>
        <mxCell id="2ybAQO_uClmqS2pj12lF-3" style="edgeStyle=orthogonalEdgeStyle;rounded=0;orthogonalLoop=1;jettySize=auto;html=1;exitX=1;exitY=0.5;exitDx=0;exitDy=0;entryX=0.5;entryY=0;entryDx=0;entryDy=0;endArrow=none;endFill=0;" edge="1" parent="1" source="2ybAQO_uClmqS2pj12lF-4" target="2ybAQO_uClmqS2pj12lF-2">
          <mxGeometry relative="1" as="geometry" />
        </mxCell>
        <mxCell id="2ybAQO_uClmqS2pj12lF-4" value="Endereço" style="ellipse;whiteSpace=wrap;html=1;" vertex="1" parent="1">
          <mxGeometry x="120" y="220" width="120" height="40" as="geometry" />
        </mxCell>
        <mxCell id="2ybAQO_uClmqS2pj12lF-51" style="edgeStyle=orthogonalEdgeStyle;rounded=0;orthogonalLoop=1;jettySize=auto;html=1;exitX=0.5;exitY=1;exitDx=0;exitDy=0;entryX=0.5;entryY=0;entryDx=0;entryDy=0;endArrow=none;endFill=0;" edge="1" parent="1" source="2ybAQO_uClmqS2pj12lF-5" target="2ybAQO_uClmqS2pj12lF-43">
          <mxGeometry relative="1" as="geometry" />
        </mxCell>
        <mxCell id="2ybAQO_uClmqS2pj12lF-5" value="Expediente" style="ellipse;whiteSpace=wrap;html=1;" vertex="1" parent="1">
          <mxGeometry x="585" y="330" width="120" height="40" as="geometry" />
        </mxCell>
        <mxCell id="2ybAQO_uClmqS2pj12lF-7" style="edgeStyle=orthogonalEdgeStyle;rounded=0;orthogonalLoop=1;jettySize=auto;html=1;exitX=0.5;exitY=0;exitDx=0;exitDy=0;entryX=0.5;entryY=1;entryDx=0;entryDy=0;endArrow=none;endFill=0;" edge="1" parent="1" source="2ybAQO_uClmqS2pj12lF-6" target="2ybAQO_uClmqS2pj12lF-2">
          <mxGeometry relative="1" as="geometry" />
        </mxCell>
        <mxCell id="2ybAQO_uClmqS2pj12lF-6" value="Pets" style="rounded=0;whiteSpace=wrap;html=1;" vertex="1" parent="1">
          <mxGeometry x="215" y="550" width="120" height="60" as="geometry" />
        </mxCell>
        <mxCell id="2ybAQO_uClmqS2pj12lF-45" value="" style="edgeStyle=orthogonalEdgeStyle;rounded=0;orthogonalLoop=1;jettySize=auto;html=1;entryX=0;entryY=0.5;entryDx=0;entryDy=0;endArrow=none;endFill=0;" edge="1" parent="1" source="2ybAQO_uClmqS2pj12lF-8" target="2ybAQO_uClmqS2pj12lF-43">
          <mxGeometry relative="1" as="geometry">
            <mxPoint x="395" y="450" as="targetPoint" />
          </mxGeometry>
        </mxCell>
        <mxCell id="2ybAQO_uClmqS2pj12lF-8" value="Cadastra" style="rhombus;whiteSpace=wrap;html=1;" vertex="1" parent="1">
          <mxGeometry x="235" y="410" width="80" height="80" as="geometry" />
        </mxCell>
        <mxCell id="2ybAQO_uClmqS2pj12lF-9" value="1" style="text;html=1;align=center;verticalAlign=middle;resizable=0;points=[];autosize=1;strokeColor=none;fillColor=none;" vertex="1" parent="1">
          <mxGeometry x="275" y="350" width="30" height="30" as="geometry" />
        </mxCell>
        <mxCell id="2ybAQO_uClmqS2pj12lF-10" value="N" style="text;html=1;align=center;verticalAlign=middle;resizable=0;points=[];autosize=1;strokeColor=none;fillColor=none;" vertex="1" parent="1">
          <mxGeometry x="275" y="520" width="30" height="30" as="geometry" />
        </mxCell>
        <mxCell id="2ybAQO_uClmqS2pj12lF-32" style="edgeStyle=orthogonalEdgeStyle;rounded=0;orthogonalLoop=1;jettySize=auto;html=1;exitX=1;exitY=0.5;exitDx=0;exitDy=0;entryX=0;entryY=0.5;entryDx=0;entryDy=0;endArrow=none;endFill=0;" edge="1" parent="1" source="2ybAQO_uClmqS2pj12lF-12" target="2ybAQO_uClmqS2pj12lF-6">
          <mxGeometry relative="1" as="geometry" />
        </mxCell>
        <mxCell id="2ybAQO_uClmqS2pj12lF-12" value="Nome" style="ellipse;whiteSpace=wrap;html=1;" vertex="1" parent="1">
          <mxGeometry x="40" y="520" width="120" height="40" as="geometry" />
        </mxCell>
        <mxCell id="2ybAQO_uClmqS2pj12lF-27" style="edgeStyle=orthogonalEdgeStyle;rounded=0;orthogonalLoop=1;jettySize=auto;html=1;exitX=1;exitY=0.5;exitDx=0;exitDy=0;entryX=0;entryY=0.5;entryDx=0;entryDy=0;endArrow=none;endFill=0;" edge="1" parent="1" source="2ybAQO_uClmqS2pj12lF-14" target="2ybAQO_uClmqS2pj12lF-6">
          <mxGeometry relative="1" as="geometry" />
        </mxCell>
        <mxCell id="2ybAQO_uClmqS2pj12lF-14" value="Raça" style="ellipse;whiteSpace=wrap;html=1;" vertex="1" parent="1">
          <mxGeometry x="40" y="440" width="120" height="40" as="geometry" />
        </mxCell>
        <mxCell id="2ybAQO_uClmqS2pj12lF-30" style="edgeStyle=orthogonalEdgeStyle;rounded=0;orthogonalLoop=1;jettySize=auto;html=1;exitX=1;exitY=0.5;exitDx=0;exitDy=0;entryX=0;entryY=0.5;entryDx=0;entryDy=0;endArrow=none;endFill=0;" edge="1" parent="1" source="2ybAQO_uClmqS2pj12lF-15" target="2ybAQO_uClmqS2pj12lF-6">
          <mxGeometry relative="1" as="geometry" />
        </mxCell>
        <mxCell id="2ybAQO_uClmqS2pj12lF-15" value="TipoPet" style="ellipse;whiteSpace=wrap;html=1;" vertex="1" parent="1">
          <mxGeometry x="40" y="600" width="120" height="40" as="geometry" />
        </mxCell>
        <mxCell id="2ybAQO_uClmqS2pj12lF-33" style="edgeStyle=orthogonalEdgeStyle;rounded=0;orthogonalLoop=1;jettySize=auto;html=1;exitX=1;exitY=0.5;exitDx=0;exitDy=0;entryX=0;entryY=0.5;entryDx=0;entryDy=0;endArrow=none;endFill=0;" edge="1" parent="1" source="2ybAQO_uClmqS2pj12lF-25" target="2ybAQO_uClmqS2pj12lF-6">
          <mxGeometry relative="1" as="geometry" />
        </mxCell>
        <mxCell id="2ybAQO_uClmqS2pj12lF-25" value="DataNascimento" style="ellipse;whiteSpace=wrap;html=1;" vertex="1" parent="1">
          <mxGeometry x="40" y="680" width="120" height="40" as="geometry" />
        </mxCell>
        <mxCell id="2ybAQO_uClmqS2pj12lF-38" style="edgeStyle=orthogonalEdgeStyle;rounded=0;orthogonalLoop=1;jettySize=auto;html=1;exitX=0.5;exitY=0;exitDx=0;exitDy=0;entryX=0.5;entryY=1;entryDx=0;entryDy=0;endArrow=none;endFill=0;" edge="1" parent="1" source="2ybAQO_uClmqS2pj12lF-39" target="2ybAQO_uClmqS2pj12lF-6">
          <mxGeometry relative="1" as="geometry" />
        </mxCell>
        <mxCell id="2ybAQO_uClmqS2pj12lF-34" value="Cliente" style="rounded=0;whiteSpace=wrap;html=1;" vertex="1" parent="1">
          <mxGeometry x="215" y="750" width="120" height="60" as="geometry" />
        </mxCell>
        <mxCell id="2ybAQO_uClmqS2pj12lF-42" value="" style="edgeStyle=orthogonalEdgeStyle;rounded=0;orthogonalLoop=1;jettySize=auto;html=1;endArrow=none;endFill=0;" edge="1" parent="1" source="2ybAQO_uClmqS2pj12lF-36" target="2ybAQO_uClmqS2pj12lF-34">
          <mxGeometry relative="1" as="geometry" />
        </mxCell>
        <mxCell id="2ybAQO_uClmqS2pj12lF-36" value="Nome" style="ellipse;whiteSpace=wrap;html=1;" vertex="1" parent="1">
          <mxGeometry x="420" y="760" width="120" height="40" as="geometry" />
        </mxCell>
        <mxCell id="2ybAQO_uClmqS2pj12lF-40" value="" style="edgeStyle=orthogonalEdgeStyle;rounded=0;orthogonalLoop=1;jettySize=auto;html=1;exitX=0.5;exitY=0;exitDx=0;exitDy=0;entryX=0.5;entryY=1;entryDx=0;entryDy=0;endArrow=none;endFill=0;" edge="1" parent="1" source="2ybAQO_uClmqS2pj12lF-34" target="2ybAQO_uClmqS2pj12lF-39">
          <mxGeometry relative="1" as="geometry">
            <mxPoint x="275" y="750" as="sourcePoint" />
            <mxPoint x="275" y="610" as="targetPoint" />
          </mxGeometry>
        </mxCell>
        <mxCell id="2ybAQO_uClmqS2pj12lF-39" value="Possui" style="rhombus;whiteSpace=wrap;html=1;" vertex="1" parent="1">
          <mxGeometry x="235" y="640" width="80" height="80" as="geometry" />
        </mxCell>
        <mxCell id="2ybAQO_uClmqS2pj12lF-52" style="edgeStyle=orthogonalEdgeStyle;rounded=0;orthogonalLoop=1;jettySize=auto;html=1;exitX=0.5;exitY=1;exitDx=0;exitDy=0;entryX=1;entryY=0.5;entryDx=0;entryDy=0;endArrow=none;endFill=0;" edge="1" parent="1" source="2ybAQO_uClmqS2pj12lF-43" target="2ybAQO_uClmqS2pj12lF-6">
          <mxGeometry relative="1" as="geometry" />
        </mxCell>
        <mxCell id="2ybAQO_uClmqS2pj12lF-43" value="Veterinario" style="rounded=0;whiteSpace=wrap;html=1;" vertex="1" parent="1">
          <mxGeometry x="450" y="420" width="120" height="60" as="geometry" />
        </mxCell>
        <mxCell id="2ybAQO_uClmqS2pj12lF-48" style="edgeStyle=orthogonalEdgeStyle;rounded=0;orthogonalLoop=1;jettySize=auto;html=1;exitX=0.5;exitY=1;exitDx=0;exitDy=0;entryX=0.5;entryY=0;entryDx=0;entryDy=0;endArrow=none;endFill=0;" edge="1" parent="1" source="2ybAQO_uClmqS2pj12lF-46" target="2ybAQO_uClmqS2pj12lF-43">
          <mxGeometry relative="1" as="geometry" />
        </mxCell>
        <mxCell id="2ybAQO_uClmqS2pj12lF-46" value="Nome" style="ellipse;whiteSpace=wrap;html=1;" vertex="1" parent="1">
          <mxGeometry x="450" y="330" width="120" height="40" as="geometry" />
        </mxCell>
        <mxCell id="2ybAQO_uClmqS2pj12lF-47" value="N" style="text;html=1;align=center;verticalAlign=middle;resizable=0;points=[];autosize=1;strokeColor=none;fillColor=none;" vertex="1" parent="1">
          <mxGeometry x="420" y="420" width="30" height="30" as="geometry" />
        </mxCell>
        <mxCell id="2ybAQO_uClmqS2pj12lF-53" value="Atende" style="rhombus;whiteSpace=wrap;html=1;" vertex="1" parent="1">
          <mxGeometry x="470" y="540" width="80" height="80" as="geometry" />
        </mxCell>
        <mxCell id="2ybAQO_uClmqS2pj12lF-56" value="1" style="text;html=1;align=center;verticalAlign=middle;resizable=0;points=[];autosize=1;strokeColor=none;fillColor=none;" vertex="1" parent="1">
          <mxGeometry x="510" y="480" width="30" height="30" as="geometry" />
        </mxCell>
        <mxCell id="2ybAQO_uClmqS2pj12lF-57" value="N" style="text;html=1;align=center;verticalAlign=middle;resizable=0;points=[];autosize=1;strokeColor=none;fillColor=none;" vertex="1" parent="1">
          <mxGeometry x="335" y="580" width="30" height="30" as="geometry" />
        </mxCell>
      </root>
    </mxGraphModel>
  </diagram>
</mxfile>
